<svg width="250" height="500" viewBox="0 0 250 500" xmlns="http://www.w3.org/2000/svg">
  <defs>
    <linearGradient id="phoneGradient1" x1="0%" y1="0%" x2="100%" y2="100%">
      <stop offset="0%" style="stop-color:#f5f5f5;stop-opacity:1" />
      <stop offset="100%" style="stop-color:#e0e0e0;stop-opacity:1" />
    </linearGradient>
    <linearGradient id="headerGradient1" x1="0%" y1="0%" x2="100%" y2="100%">
      <stop offset="0%" style="stop-color:#ffc107;stop-opacity:1" />
      <stop offset="100%" style="stop-color:#ff8f00;stop-opacity:1" />
    </linearGradient>
  </defs>
  
  <!-- Phone Frame -->
  <rect x="10" y="10" width="230" height="480" rx="25" fill="url(#phoneGradient1)" stroke="#333" stroke-width="2"/>
  <rect x="20" y="20" width="210" height="460" rx="20" fill="#000"/>
  
  <!-- Status Bar -->
  <rect x="20" y="20" width="210" height="35" rx="20" fill="#333"/>
  <circle cx="35" cy="37" r="2" fill="#4CAF50"/>
  <text x="45" y="42" font-family="Arial, sans-serif" font-size="10" fill="white">9:41</text>
  <text x="210" y="42" font-family="Arial, sans-serif" font-size="10" fill="white">100%</text>
  
  <!-- Header -->
  <rect x="20" y="55" width="210" height="70" fill="url(#headerGradient1)"/>
  <text x="125" y="80" font-family="Arial, sans-serif" font-size="14" font-weight="bold" text-anchor="middle" fill="white">Dogecoin Wallet</text>
  <text x="125" y="95" font-family="Arial, sans-serif" font-size="10" text-anchor="middle" fill="white">Balance</text>
  <text x="125" y="115" font-family="Arial, sans-serif" font-size="20" font-weight="bold" text-anchor="middle" fill="white">1,234.56 DOGE</text>
  
  <!-- QR Code -->
  <rect x="60" y="140" width="130" height="130" rx="8" fill="white" stroke="#ddd" stroke-width="1"/>
  <rect x="70" y="150" width="110" height="110" fill="#000"/>
  <!-- QR Pattern -->
  <rect x="75" y="155" width="8" height="8" fill="white"/>
  <rect x="87" y="155" width="8" height="8" fill="white"/>
  <rect x="99" y="155" width="8" height="8" fill="white"/>
  <rect x="111" y="155" width="8" height="8" fill="white"/>
  <rect x="123" y="155" width="8" height="8" fill="white"/>
  <rect x="135" y="155" width="8" height="8" fill="white"/>
  <rect x="147" y="155" width="8" height="8" fill="white"/>
  <rect x="159" y="155" width="8" height="8" fill="white"/>
  <rect x="171" y="155" width="8" height="8" fill="white"/>
  <rect x="75" y="167" width="8" height="8" fill="white"/>
  <rect x="99" y="167" width="8" height="8" fill="white"/>
  <rect x="111" y="167" width="8" height="8" fill="white"/>
  <rect x="135" y="167" width="8" height="8" fill="white"/>
  <rect x="147" y="167" width="8" height="8" fill="white"/>
  <rect x="171" y="167" width="8" height="8" fill="white"/>
  <rect x="75" y="179" width="8" height="8" fill="white"/>
  <rect x="87" y="179" width="8" height="8" fill="white"/>
  <rect x="99" y="179" width="8" height="8" fill="white"/>
  <rect x="123" y="179" width="8" height="8" fill="white"/>
  <rect x="135" y="179" width="8" height="8" fill="white"/>
  <rect x="171" y="179" width="8" height="8" fill="white"/>
  <rect x="75" y="191" width="8" height="8" fill="white"/>
  <rect x="87" y="191" width="8" height="8" fill="white"/>
  <rect x="99" y="191" width="8" height="8" fill="white"/>
  <rect x="111" y="191" width="8" height="8" fill="white"/>
  <rect x="123" y="191" width="8" height="8" fill="white"/>
  <rect x="135" y="191" width="8" height="8" fill="white"/>
  <rect x="147" y="191" width="8" height="8" fill="white"/>
  <rect x="159" y="191" width="8" height="8" fill="white"/>
  <rect x="171" y="191" width="8" height="8" fill="white"/>
  <rect x="75" y="203" width="8" height="8" fill="white"/>
  <rect x="99" y="203" width="8" height="8" fill="white"/>
  <rect x="111" y="203" width="8" height="8" fill="white"/>
  <rect x="123" y="203" width="8" height="8" fill="white"/>
  <rect x="135" y="203" width="8" height="8" fill="white"/>
  <rect x="147" y="203" width="8" height="8" fill="white"/>
  <rect x="171" y="203" width="8" height="8" fill="white"/>
  <rect x="75" y="215" width="8" height="8" fill="white"/>
  <rect x="87" y="215" width="8" height="8" fill="white"/>
  <rect x="99" y="215" width="8" height="8" fill="white"/>
  <rect x="111" y="215" width="8" height="8" fill="white"/>
  <rect x="123" y="215" width="8" height="8" fill="white"/>
  <rect x="135" y="215" width="8" height="8" fill="white"/>
  <rect x="147" y="215" width="8" height="8" fill="white"/>
  <rect x="159" y="215" width="8" height="8" fill="white"/>
  <rect x="171" y="215" width="8" height="8" fill="white"/>
  <rect x="75" y="227" width="8" height="8" fill="white"/>
  <rect x="87" y="227" width="8" height="8" fill="white"/>
  <rect x="99" y="227" width="8" height="8" fill="white"/>
  <rect x="111" y="227" width="8" height="8" fill="white"/>
  <rect x="123" y="227" width="8" height="8" fill="white"/>
  <rect x="135" y="227" width="8" height="8" fill="white"/>
  <rect x="147" y="227" width="8" height="8" fill="white"/>
  <rect x="159" y="227" width="8" height="8" fill="white"/>
  <rect x="171" y="227" width="8" height="8" fill="white"/>
  <rect x="75" y="239" width="8" height="8" fill="white"/>
  <rect x="87" y="239" width="8" height="8" fill="white"/>
  <rect x="99" y="239" width="8" height="8" fill="white"/>
  <rect x="111" y="239" width="8" height="8" fill="white"/>
  <rect x="123" y="239" width="8" height="8" fill="white"/>
  <rect x="135" y="239" width="8" height="8" fill="white"/>
  <rect x="147" y="239" width="8" height="8" fill="white"/>
  <rect x="159" y="239" width="8" height="8" fill="white"/>
  <rect x="171" y="239" width="8" height="8" fill="white"/>
  <rect x="75" y="251" width="8" height="8" fill="white"/>
  <rect x="87" y="251" width="8" height="8" fill="white"/>
  <rect x="99" y="251" width="8" height="8" fill="white"/>
  <rect x="111" y="251" width="8" height="8" fill="white"/>
  <rect x="123" y="251" width="8" height="8" fill="white"/>
  <rect x="135" y="251" width="8" height="8" fill="white"/>
  <rect x="147" y="251" width="8" height="8" fill="white"/>
  <rect x="159" y="251" width="8" height="8" fill="white"/>
  <rect x="171" y="251" width="8" height="8" fill="white"/>
  
  <!-- Address -->
  <text x="125" y="290" font-family="Arial, sans-serif" font-size="8" text-anchor="middle" fill="#666">D7Y55v3HTda9XyBc5ohw4rqK3sf39M5jSX</text>
  
  <!-- Action Buttons -->
  <rect x="40" y="310" width="70" height="35" rx="17" fill="#4CAF50"/>
  <text x="75" y="332" font-family="Arial, sans-serif" font-size="12" font-weight="bold" text-anchor="middle" fill="white">Send</text>
  
  <rect x="140" y="310" width="70" height="35" rx="17" fill="#2196F3"/>
  <text x="175" y="332" font-family="Arial, sans-serif" font-size="12" font-weight="bold" text-anchor="middle" fill="white">Receive</text>
  
  <!-- Recent Transactions -->
  <text x="20" y="370" font-family="Arial, sans-serif" font-size="14" font-weight="bold" fill="#333">Recent Transactions</text>
  
  <!-- Transaction 1 -->
  <rect x="20" y="380" width="210" height="40" fill="#f8f9fa" stroke="#ddd" stroke-width="1"/>
  <circle cx="40" cy="400" r="6" fill="#4CAF50"/>
  <text x="55" y="405" font-family="Arial, sans-serif" font-size="10" fill="#333">Received</text>
  <text x="55" y="415" font-family="Arial, sans-serif" font-size="8" fill="#666">2 hours ago</text>
  <text x="210" y="405" font-family="Arial, sans-serif" font-size="10" font-weight="bold" text-anchor="end" fill="#4CAF50">+50.00 DOGE</text>
  
  <!-- Transaction 2 -->
  <rect x="20" y="430" width="210" height="40" fill="#f8f9fa" stroke="#ddd" stroke-width="1"/>
  <circle cx="40" cy="450" r="6" fill="#f44336"/>
  <text x="55" y="455" font-family="Arial, sans-serif" font-size="10" fill="#333">Sent</text>
  <text x="55" y="465" font-family="Arial, sans-serif" font-size="8" fill="#666">1 day ago</text>
  <text x="210" y="455" font-family="Arial, sans-serif" font-size="10" font-weight="bold" text-anchor="end" fill="#f44336">-25.50 DOGE</text>
</svg>
