<svg width="20" height="20" viewBox="0 0 20 20" xmlns="http://www.w3.org/2000/svg">
  <path d="M18.258 3.266c-.363 1.635-.805 2.95-1.291 3.8-.486.85-1.05 1.6-1.7 2.25-.65.65-1.4 1.214-2.25 1.7-.85.486-2.165.928-3.8 1.291-1.635.363-3.4.545-5.217.545-1.817 0-3.582-.182-5.217-.545-1.635-.363-2.95-.805-3.8-1.291-.85-.486-1.6-1.05-2.25-1.7-.65-.65-1.214-1.4-1.7-2.25-.486-.85-.928-2.165-1.291-3.8C.182 4.85 0 3.085 0 1.268c0-1.817.182-3.582.545-5.217.363-1.635.805-2.95 1.291-3.8.486-.85 1.05-1.6 1.7-2.25.65-.65 1.4-1.214 2.25-1.7.85-.486 2.165-.928 3.8-1.291C9.416-6.182 11.181-6.364 13-6.364c1.817 0 3.582.182 5.217.545 1.635.363 2.95.805 3.8 1.291.85.486 1.6 1.05 2.25 1.7.65.65 1.214 1.4 1.7 2.25.486.85.928 2.165 1.291 3.8.363 1.635.545 3.4.545 5.217 0 1.817-.182 3.582-.545 5.217z" fill="currentColor"/>
  <path d="M13.5 2.5c-1.2 0-2.2.4-3 1.2-.8-.8-1.8-1.2-3-1.2-2.2 0-4 1.8-4 4 0 .3 0 .6.1.9-3.3.2-6.1-1.7-6.1-4.9 0-1.1.4-2.1 1.1-2.8.7-.7 1.7-1.1 2.8-1.1 1.1 0 2.1.4 2.8 1.1.7.7 1.1 1.7 1.1 2.8 0 3.2-2.8 5.1-6.1 4.9.1-.3.1-.6.1-.9 0-2.2 1.8-4 4-4 1.2 0 2.2.4 3 1.2.8-.8 1.8-1.2 3-1.2 2.2 0 4 1.8 4 4 0 .3 0 .6-.1.9 3.3.2 6.1-1.7 6.1-4.9 0-1.1-.4-2.1-1.1-2.8-.7-.7-1.7-1.1-2.8-1.1-1.1 0-2.1.4-2.8 1.1-.7.7-1.1 1.7-1.1 2.8 0-3.2 2.8-5.1 6.1-4.9-.1.3-.1.6-.1.9 0 2.2-1.8 4-4 4z" fill="white"/>
</svg>
