<svg width="300" height="600" viewBox="0 0 300 600" xmlns="http://www.w3.org/2000/svg">
  <defs>
    <linearGradient id="phoneGradient" x1="0%" y1="0%" x2="100%" y2="100%">
      <stop offset="0%" style="stop-color:#f5f5f5;stop-opacity:1" />
      <stop offset="100%" style="stop-color:#e0e0e0;stop-opacity:1" />
    </linearGradient>
    <linearGradient id="headerGradient" x1="0%" y1="0%" x2="100%" y2="100%">
      <stop offset="0%" style="stop-color:#ffc107;stop-opacity:1" />
      <stop offset="100%" style="stop-color:#ff8f00;stop-opacity:1" />
    </linearGradient>
  </defs>
  
  <!-- Phone Frame -->
  <rect x="20" y="20" width="260" height="560" rx="30" fill="url(#phoneGradient)" stroke="#333" stroke-width="2"/>
  <rect x="30" y="30" width="240" height="540" rx="25" fill="#000"/>
  
  <!-- Status Bar -->
  <rect x="30" y="30" width="240" height="40" rx="25" fill="#333"/>
  <circle cx="50" cy="50" r="3" fill="#4CAF50"/>
  <text x="60" y="55" font-family="Arial, sans-serif" font-size="12" fill="white">9:41</text>
  <text x="250" y="55" font-family="Arial, sans-serif" font-size="12" fill="white">100%</text>
  
  <!-- Header -->
  <rect x="30" y="70" width="240" height="80" fill="url(#headerGradient)"/>
  <text x="150" y="100" font-family="Arial, sans-serif" font-size="16" font-weight="bold" text-anchor="middle" fill="white">Dogecoin Wallet</text>
  <text x="150" y="120" font-family="Arial, sans-serif" font-size="12" text-anchor="middle" fill="white">Balance</text>
  <text x="150" y="140" font-family="Arial, sans-serif" font-size="24" font-weight="bold" text-anchor="middle" fill="white">1,234.56 DOGE</text>
  
  <!-- QR Code Area -->
  <rect x="80" y="170" width="140" height="140" rx="10" fill="white" stroke="#ddd" stroke-width="2"/>
  <rect x="90" y="180" width="120" height="120" fill="#000"/>
  <!-- QR Code Pattern -->
  <rect x="95" y="185" width="10" height="10" fill="white"/>
  <rect x="110" y="185" width="10" height="10" fill="white"/>
  <rect x="125" y="185" width="10" height="10" fill="white"/>
  <rect x="140" y="185" width="10" height="10" fill="white"/>
  <rect x="155" y="185" width="10" height="10" fill="white"/>
  <rect x="170" y="185" width="10" height="10" fill="white"/>
  <rect x="185" y="185" width="10" height="10" fill="white"/>
  <rect x="200" y="185" width="10" height="10" fill="white"/>
  <rect x="95" y="200" width="10" height="10" fill="white"/>
  <rect x="125" y="200" width="10" height="10" fill="white"/>
  <rect x="140" y="200" width="10" height="10" fill="white"/>
  <rect x="170" y="200" width="10" height="10" fill="white"/>
  <rect x="185" y="200" width="10" height="10" fill="white"/>
  <rect x="200" y="200" width="10" height="10" fill="white"/>
  <rect x="95" y="215" width="10" height="10" fill="white"/>
  <rect x="110" y="215" width="10" height="10" fill="white"/>
  <rect x="125" y="215" width="10" height="10" fill="white"/>
  <rect x="155" y="215" width="10" height="10" fill="white"/>
  <rect x="170" y="215" width="10" height="10" fill="white"/>
  <rect x="200" y="215" width="10" height="10" fill="white"/>
  <rect x="95" y="230" width="10" height="10" fill="white"/>
  <rect x="110" y="230" width="10" height="10" fill="white"/>
  <rect x="125" y="230" width="10" height="10" fill="white"/>
  <rect x="140" y="230" width="10" height="10" fill="white"/>
  <rect x="155" y="230" width="10" height="10" fill="white"/>
  <rect x="170" y="230" width="10" height="10" fill="white"/>
  <rect x="185" y="230" width="10" height="10" fill="white"/>
  <rect x="200" y="230" width="10" height="10" fill="white"/>
  <rect x="95" y="245" width="10" height="10" fill="white"/>
  <rect x="125" y="245" width="10" height="10" fill="white"/>
  <rect x="140" y="245" width="10" height="10" fill="white"/>
  <rect x="155" y="245" width="10" height="10" fill="white"/>
  <rect x="170" y="245" width="10" height="10" fill="white"/>
  <rect x="185" y="245" width="10" height="10" fill="white"/>
  <rect x="200" y="245" width="10" height="10" fill="white"/>
  <rect x="95" y="260" width="10" height="10" fill="white"/>
  <rect x="110" y="260" width="10" height="10" fill="white"/>
  <rect x="125" y="260" width="10" height="10" fill="white"/>
  <rect x="140" y="260" width="10" height="10" fill="white"/>
  <rect x="155" y="260" width="10" height="10" fill="white"/>
  <rect x="170" y="260" width="10" height="10" fill="white"/>
  <rect x="185" y="260" width="10" height="10" fill="white"/>
  <rect x="200" y="260" width="10" height="10" fill="white"/>
  <rect x="95" y="275" width="10" height="10" fill="white"/>
  <rect x="110" y="275" width="10" height="10" fill="white"/>
  <rect x="125" y="275" width="10" height="10" fill="white"/>
  <rect x="140" y="275" width="10" height="10" fill="white"/>
  <rect x="155" y="275" width="10" height="10" fill="white"/>
  <rect x="170" y="275" width="10" height="10" fill="white"/>
  <rect x="185" y="275" width="10" height="10" fill="white"/>
  <rect x="200" y="275" width="10" height="10" fill="white"/>
  <rect x="95" y="290" width="10" height="10" fill="white"/>
  <rect x="110" y="290" width="10" height="10" fill="white"/>
  <rect x="125" y="290" width="10" height="10" fill="white"/>
  <rect x="140" y="290" width="10" height="10" fill="white"/>
  <rect x="155" y="290" width="10" height="10" fill="white"/>
  <rect x="170" y="290" width="10" height="10" fill="white"/>
  <rect x="185" y="290" width="10" height="10" fill="white"/>
  <rect x="200" y="290" width="10" height="10" fill="white"/>
  
  <!-- Address -->
  <text x="150" y="330" font-family="Arial, sans-serif" font-size="10" text-anchor="middle" fill="#666">D7Y55v3HTda9XyBc5ohw4rqK3sf39M5jSX</text>
  
  <!-- Action Buttons -->
  <rect x="50" y="360" width="80" height="40" rx="20" fill="#4CAF50"/>
  <text x="90" y="385" font-family="Arial, sans-serif" font-size="14" font-weight="bold" text-anchor="middle" fill="white">Send</text>
  
  <rect x="170" y="360" width="80" height="40" rx="20" fill="#2196F3"/>
  <text x="210" y="385" font-family="Arial, sans-serif" font-size="14" font-weight="bold" text-anchor="middle" fill="white">Receive</text>
  
  <!-- Recent Transactions -->
  <text x="30" y="430" font-family="Arial, sans-serif" font-size="16" font-weight="bold" fill="#333">Recent Transactions</text>
  
  <!-- Transaction 1 -->
  <rect x="30" y="440" width="240" height="50" fill="#f8f9fa" stroke="#ddd" stroke-width="1"/>
  <circle cx="50" cy="465" r="8" fill="#4CAF50"/>
  <text x="70" y="470" font-family="Arial, sans-serif" font-size="12" fill="#333">Received</text>
  <text x="70" y="485" font-family="Arial, sans-serif" font-size="10" fill="#666">2 hours ago</text>
  <text x="250" y="470" font-family="Arial, sans-serif" font-size="12" font-weight="bold" text-anchor="end" fill="#4CAF50">+50.00 DOGE</text>
  
  <!-- Transaction 2 -->
  <rect x="30" y="500" width="240" height="50" fill="#f8f9fa" stroke="#ddd" stroke-width="1"/>
  <circle cx="50" cy="525" r="8" fill="#f44336"/>
  <text x="70" y="530" font-family="Arial, sans-serif" font-size="12" fill="#333">Sent</text>
  <text x="70" y="545" font-family="Arial, sans-serif" font-size="10" fill="#666">1 day ago</text>
  <text x="250" y="530" font-family="Arial, sans-serif" font-size="12" font-weight="bold" text-anchor="end" fill="#f44336">-25.50 DOGE</text>
</svg>
